<?xml version="1.0" standalone="no"?>
<!DOCTYPE svg PUBLIC "-//W3C//DTD SVG 20010904//EN"
 "http://www.w3.org/TR/2001/REC-SVG-20010904/DTD/svg10.dtd">
<svg version="1.0" xmlns="http://www.w3.org/2000/svg"
 width="900.000000pt" height="333.000000pt" viewBox="0 0 900.000000 333.000000"
 preserveAspectRatio="xMidYMid meet">
<metadata>
Created by potrace 1.10, written by Peter Selinger 2001-2011
</metadata>
<g transform="translate(0.000000,333.000000) scale(0.100000,-0.100000)"
fill="#000000" stroke="none">
<path d="M2255 2511 c-190 -27 -391 -166 -502 -346 -117 -189 -137 -460 -48
-648 14 -30 25 -57 25 -60 0 -29 119 -163 333 -374 l254 -253 51 0 51 0 176
172 c97 94 181 180 186 191 9 16 0 29 -63 91 -94 93 -128 119 -142 107 -32
-26 -134 -51 -213 -51 -144 0 -264 63 -351 184 -48 65 -61 95 -78 176 -17 79
-17 106 -3 167 26 107 73 184 158 257 66 56 113 79 208 101 67 16 76 16 150 0
103 -23 165 -57 238 -131 94 -95 127 -174 127 -307 0 -100 -14 -153 -63 -245
l-23 -43 85 -85 c48 -46 92 -84 100 -84 18 0 79 85 110 150 62 133 85 272 68
405 -12 97 -53 211 -101 283 -15 24 -28 46 -28 50 0 5 -33 41 -72 81 -99 99
-184 153 -313 195 -56 18 -243 28 -320 17z"/>
<path d="M4060 2153 c-51 -18 -67 -104 -27 -141 36 -34 76 -37 117 -10 29 20
36 31 38 65 3 35 -1 44 -28 67 -30 25 -65 31 -100 19z"/>
<path d="M5510 2121 l-55 -6 -3 -127 c-1 -71 -5 -128 -8 -128 -2 0 -23 12 -45
27 -36 23 -49 26 -127 26 -103 0 -153 -20 -218 -88 -47 -49 -84 -146 -83 -216
1 -82 43 -176 103 -231 57 -54 99 -68 195 -68 82 0 91 2 129 30 40 29 42 29
52 10 9 -17 21 -20 74 -20 49 0 65 4 70 16 3 9 6 183 6 388 0 359 -3 402 -29
394 -4 -1 -31 -4 -61 -7z m-154 -350 c23 -10 54 -35 69 -55 23 -31 27 -44 27
-106 0 -61 -4 -76 -27 -105 -38 -50 -78 -68 -141 -63 -67 6 -115 38 -143 95
-26 53 -26 95 -2 148 20 45 38 62 90 86 47 23 77 23 127 0z"/>
<path d="M3415 2108 c-3 -7 -4 -184 -3 -393 l3 -380 68 -3 c99 -4 99 -4 97
152 -1 72 -1 137 -1 143 1 9 42 13 154 15 l152 3 0 70 0 70 -149 5 c-172 6
-162 -1 -161 115 l0 60 145 2 c202 4 192 -1 188 81 l-3 67 -243 3 c-189 2
-244 0 -247 -10z"/>
<path d="M2261 2038 c-62 -28 -125 -95 -144 -153 -45 -130 1 -266 111 -335 43
-27 55 -30 135 -30 97 0 141 15 195 69 55 56 75 107 74 197 0 92 -19 140 -77
198 -74 74 -199 98 -294 54z"/>
<path d="M5975 1910 c-185 -21 -304 -228 -238 -414 21 -58 89 -132 151 -164
56 -29 210 -32 269 -5 151 69 214 221 163 395 -14 49 -92 134 -149 162 -51 26
-119 35 -196 26z m112 -141 c45 -17 72 -49 90 -106 15 -46 15 -61 4 -101 -36
-137 -197 -167 -280 -51 -26 35 -31 51 -31 99 0 47 5 64 30 98 45 63 119 87
187 61z"/>
<path d="M7040 1910 c-25 -4 -60 -15 -78 -24 -38 -21 -102 -84 -102 -101 0 -7
-6 -18 -13 -24 -8 -6 -20 -42 -27 -80 -23 -121 18 -247 98 -308 71 -54 96 -63
172 -63 71 0 124 16 162 48 14 12 18 11 28 -7 9 -17 20 -21 60 -21 86 0 80
-22 80 290 l0 278 -22 6 c-13 3 -42 6 -64 6 -32 0 -45 -5 -56 -22 l-15 -22
-34 21 c-39 23 -122 33 -189 23z m135 -140 c83 -40 105 -73 105 -160 0 -106
-60 -171 -158 -170 -83 1 -141 59 -149 149 -9 100 18 149 100 183 53 21 54 21
102 -2z"/>
<path d="M4036 1894 c-14 -13 -16 -53 -16 -278 0 -190 3 -265 12 -274 7 -7 35
-12 63 -12 28 0 56 5 63 12 15 15 17 503 2 542 -8 23 -15 26 -59 26 -32 0 -55
-6 -65 -16z"/>
<path d="M4338 1903 c-17 -4 -18 -26 -18 -284 l0 -279 23 -5 c13 -4 43 -5 68
-3 l44 3 5 172 5 171 31 39 c17 21 51 46 76 57 43 17 47 18 81 1 66 -31 71
-48 77 -255 l5 -185 44 -3 c25 -2 55 -1 68 3 l23 5 0 193 c0 244 -12 290 -92
347 -38 28 -48 30 -126 30 -77 0 -88 -3 -129 -30 -54 -37 -61 -37 -65 -2 -3
25 -6 27 -53 29 -27 0 -58 -1 -67 -4z"/>
<path d="M6452 1898 c-19 -19 -17 -541 2 -557 9 -7 38 -11 73 -9 l58 3 6 160
c6 185 17 221 74 248 19 9 51 17 70 17 l35 0 0 75 0 75 -38 0 c-27 0 -51 -9
-80 -30 -51 -37 -60 -37 -64 -2 -3 26 -6 27 -63 30 -38 2 -65 -2 -73 -10z"/>
</g>
</svg>
