<?xml version="1.0" encoding="UTF-8" standalone="no"?>
<!-- Created with Inkscape (http://www.inkscape.org/) -->

<svg
   version="1.1"
   id="svg1"
   width="664"
   height="248"
   viewBox="0 0 664 248"
   sodipodi:docname="finalLogo.svg"
   inkscape:version="1.4.3 (fcd0343856, 2026-01-01)"
   xmlns:inkscape="http://www.inkscape.org/namespaces/inkscape"
   xmlns:sodipodi="http://sodipodi.sourceforge.net/DTD/sodipodi-0.dtd"
   xmlns="http://www.w3.org/2000/svg"
   xmlns:svg="http://www.w3.org/2000/svg">
  <defs
     id="defs1" />
  <sodipodi:namedview
     id="namedview1"
     pagecolor="#505050"
     bordercolor="#eeeeee"
     borderopacity="1"
     inkscape:showpageshadow="0"
     inkscape:pageopacity="0"
     inkscape:pagecheckerboard="0"
     inkscape:deskcolor="#505050"
     inkscape:zoom="0.82981928"
     inkscape:cx="332"
     inkscape:cy="123.52087"
     inkscape:window-width="1300"
     inkscape:window-height="699"
     inkscape:window-x="0"
     inkscape:window-y="0"
     inkscape:window-maximized="1"
     inkscape:current-layer="g1" />
  <g
     inkscape:groupmode="layer"
     inkscape:label="Image"
     id="g1">
    <path
       style="fill:#000000"
       d="M 76.204596,211.62969 C 72.728913,210.24276 19.938294,157.5497 14.616437,150.15535 4.4649119,136.05051 -0.85684366,119.84891 -0.95678156,102.7441 -1.0329806,89.702217 0.39847574,81.652497 4.6836379,71.025477 9.3468139,59.460987 15.733909,50.343627 25.994787,40.604537 c 22.289254,-21.15579 52.652455,-28.08056 81.029473,-18.47993 27.12811,9.17809 49.2252,34.44713 55.19629,63.11949 1.716,8.24004 1.49805,24.491643 -0.44748,33.366393 -2.12603,9.69814 -6.2639,19.36479 -11.9512,27.91971 -7.2101,10.84555 -6.0706,10.90419 -18.16624,-0.93496 l -10.57538,-10.35114 3.0366,-5.58713 c 9.13214,-16.80245 9.99283,-33.017403 2.58385,-48.678423 -13.12491,-27.74327 -46.765657,-37.96206 -71.907597,-21.8428 -7.300286,4.68043 -15.991511,14.51931 -19.712019,22.31493 -8.616495,18.05424 -5.040501,40.164583 8.971875,55.473043 10.356203,11.31411 21.487348,16.23401 36.626714,16.18877 8.469213,-0.0253 15.222287,-1.61028 24.732367,-5.80477 1.34099,-0.59144 4.27805,1.7349 13,10.29686 l 11.26763,11.06092 -19,19.14282 c -10.45,10.52855 -20.755014,20.44624 -22.900035,22.03931 -4.025633,2.98976 -7.289318,3.49222 -11.575039,1.78206 z M 401.36592,156.24446 c -15.53672,-4.36242 -25.35438,-19.98098 -23.8512,-37.944 1.52775,-18.25668 14.70861,-30.772803 32.61725,-30.972283 8.22775,-0.0917 15.49253,2.04 18.58022,5.45186 0.9776,1.08023 2.18026,1.96406 2.67258,1.96406 0.50034,0 0.76276,-6.60537 0.59501,-14.97702 l -0.30011,-14.97703 2.5,-0.48264 c 1.375,-0.26545 5.0875,-0.77764 8.25,-1.1382 l 5.75,-0.65555 v 46.115223 46.11522 h -8.42718 -8.42718 l 0.40006,-3.16111 0.40006,-3.16111 -2.72288,2.60806 c -5.95229,5.7013 -18.19405,7.97814 -28.03663,5.21452 z m 20.09587,-15.8772 c 3.89148,-1.66505 8.20685,-6.10736 9.65426,-9.93826 2.69749,-7.1395 0.44293,-18.32142 -4.61657,-22.89676 -5.60817,-5.07152 -15.36221,-6.15987 -22.41253,-2.50078 -3.3816,1.75504 -5.04727,3.54221 -7.15728,7.67932 -2.95397,5.79189 -3.34626,9.34605 -1.68987,15.31065 1.2715,4.57866 6.30752,10.53662 10.42128,12.3291 3.97354,1.73139 11.774,1.73965 15.80071,0.0167 z m 65.00392,15.9844 c -9.97855,-3.25662 -16.92994,-9.17834 -21.37475,-18.20866 -2.08425,-4.23446 -2.41129,-6.32302 -2.41129,-15.3989 0,-9.47607 0.27308,-11.0561 2.80036,-16.20261 5.92438,-12.064303 17.77403,-19.080483 32.24192,-19.090443 10.29992,-0.007 18.33633,3.3177 24.84925,10.28054 7.13261,7.625343 8.92651,12.020363 9.39289,23.012513 0.48718,11.48215 -1.61402,18.25271 -7.87041,25.36035 -6.11568,6.94778 -15.00313,10.92904 -25.25948,11.31534 -5.03321,0.18958 -9.76751,-0.21927 -12.36849,-1.06813 z m 19.70832,-16.85756 c 8.26873,-4.21098 11.5819,-16.48093 7.10931,-26.3286 -4.53484,-9.98473 -16.70254,-13.220573 -26.19738,-6.96685 -8.7296,5.7497 -10.37471,21.08158 -3.17957,29.63253 5.22129,6.20515 14.33266,7.70392 22.26764,3.66292 z m 97.87388,13.98533 c -11.62405,-6.0174 -17.40647,-16.78258 -17.31492,-32.23533 0.0614,-10.3617 2.58539,-17.32714 8.75208,-24.152923 9.39343,-10.3974 28.71209,-13.23365 39.86534,-5.85279 l 3.82926,2.53409 v -2.51419 c 0,-2.47607 0.12129,-2.51419 8,-2.51419 h 8 v 33.000003 33 h -8 -8 v -3.18709 -3.18709 l -2.76417,2.64824 c -3.93283,3.76789 -10.35287,5.72594 -18.77418,5.72594 -6.27335,0 -8.1641,-0.45409 -13.59341,-3.26467 z m 28.53504,-15.09376 c 5.32492,-4.06152 7.01906,-7.95397 7.06089,-16.22315 0.0313,-6.19482 -0.3225,-7.59914 -2.8258,-11.21483 -6.93722,-10.01992 -20.46253,-10.86258 -28.44404,-1.77214 -3.55643,4.05055 -4.62396,8.37425 -3.98123,16.12474 0.52234,6.29871 4.16862,11.75396 9.858,14.74868 5.11063,2.69009 13.63909,1.9163 18.33218,-1.6633 z M 199.17967,109.2441 V 63.744097 h 28.5 28.5 v 8.5 8.5 h -19 -19 v 10.5 10.500003 h 18 18 v 8.5 8.5 h -18 -18 v 18 18 h -9.5 -9.5 z m 70,12.5 V 88.744097 h 8.25 8.25 v 33.000003 33 h -8.25 -8.25 z m 33.77642,-4.8e-4 -0.27642,-33.000483 8.25,4.8e-4 8.25,4.8e-4 v 4.13636 4.13637 l 2.72922,-2.72922 c 5.05529,-5.05529 8.00011,-6.02391 18.34506,-6.03409 8.90673,-0.009 9.91389,0.20037 14.44524,2.9995 3.45991,2.13728 5.61104,4.44579 7.42572,7.96899 2.51181,4.876683 2.56001,5.385053 2.86716,30.241083 l 0.31241,25.28101 h -8.06241 -8.0624 v -20.53212 c 0,-21.83843 -0.54739,-25.02925 -4.96945,-28.96788 -1.69835,-1.51268 -3.62977,-1.99233 -7.92674,-1.96854 -6.36518,0.0353 -10.34333,2.19145 -14.31404,7.75831 -2.17496,3.04926 -2.306,4.22562 -2.61348,23.46023 l -0.32371,20.25 h -7.89987 -7.89986 z m 241.72358,4.8e-4 V 88.744097 h 8.25 8.25 v 4.11636 4.11636 l 3.92922,-3.54981 c 3.95595,-3.57396 9.23558,-5.66702 14.32078,-5.67733 l 2.75,-0.006 v 9 9.000003 h -4.53212 c -5.89972,0 -10.57934,2.01863 -13.01348,5.61357 -1.74894,2.58299 -1.98843,5.0152 -2.27811,23.13643 l -0.32371,20.25 h -8.67629 -8.67629 z M 70.882349,132.36179 C 56.90732,127.15591 49.467324,115.3581 50.39266,99.870727 c 0.526484,-8.81177 2.85787,-14.19748 8.655593,-19.99521 6.224333,-6.22433 12.273636,-8.63395 21.63142,-8.61646 13.019727,0.0243 21.780987,5.3562 27.453167,16.70724 2.6465,5.29611 3.04555,7.16025 3.03706,14.187523 -0.008,6.38786 -0.5061,9.15618 -2.36847,13.15568 -5.41036,11.61897 -14.09111,17.52568 -26.621757,18.11445 -4.827509,0.22682 -8.853108,-0.15166 -11.297324,-1.06216 z M 270.10275,76.821027 c -8.08154,-8.08154 1.77929,-21.90204 11.89473,-16.67114 6.85567,3.5452 8.41397,11.51629 3.25911,16.67114 -2.3933,2.3933 -3.76653,2.92307 -7.57692,2.92307 -3.81039,0 -5.18362,-0.52977 -7.57692,-2.92307 z"
       id="path1" />
  </g>
</svg>
